<?xml version="1.0" encoding="utf-8"?>
<!-- Generator: Adobe Illustrator 25.2.3, SVG Export Plug-In . SVG Version: 6.00 Build 0)  -->
<svg version="1.1" id="Layer_1" xmlns="http://www.w3.org/2000/svg" xmlns:xlink="http://www.w3.org/1999/xlink" x="0px" y="0px"
	 viewBox="0 0 400 400" style="enable-background:new 0 0 400 400;" xml:space="preserve">
<style type="text/css">
	.st0{fill:#0091DA;}
	.st1{fill:#1D428A;}
	.st2{fill:#00C1D5;}
</style>
<path class="st0" d="M315.6,339.7c-3,0-5.9-1.7-7.3-4.6c-1.9-4-0.1-8.8,3.9-10.6c43.6-20.2,71.8-63.9,71.8-111.4
	c0-25.3-7.7-49.6-22.4-70.3c-14.3-20.4-34.1-35.8-57.3-44.6c-4.1-1.6-6.2-6.2-4.6-10.3s6.2-6.2,10.3-4.6
	c26.2,10,48.6,27.3,64.7,50.2c16.6,23.4,25.3,50.9,25.3,79.6c0,53.7-31.8,103.2-81.1,126C317.9,339.4,316.7,339.7,315.6,339.7z"/>
<path class="st1" d="M258.6,124.4c-1,0-2.1,0-3.1,0c-6.1-19.9-18-37.6-34.3-50.6c-18.6-14.8-41.6-22.9-65.4-22.9
	c-57.4,0-104.1,46.3-104.1,103.2c0,0.3,0,0.7,0,1c-39.4,12.7-61,54.8-48.4,94.2c6.6,20.7,21.9,37.4,41.9,46v-17.9
	C17.1,261,7.5,224.9,23.8,196.8c8.2-14.2,22.1-24.3,38.1-27.9l6.7-1.6l-0.5-6.8c-0.2-2.5-0.3-4.5-0.3-6.4c0-48,39.5-87.1,88-87.1
	c40.9-0.1,76.4,28,85.7,67.8l1.6,7l7.2-0.8c2.7-0.3,5.5-0.5,8.3-0.5c40.4,0,73.3,32.6,73.3,72.6c0.1,21.1-9.2,41.1-25.2,54.8v19.9
	c25.8-16.1,41.4-44.3,41.4-74.7C348,164.1,307.9,124.4,258.6,124.4z"/>
<path class="st2" d="M11.4,135.1c-0.5,0-1,0-1.5-0.1c-4.3-0.8-7.2-5-6.4-9.3C17,52.8,81.1,0,155.8,0C191,0,225.5,12.1,253,34.1
	c9.6,7.6,18.2,16.4,25.6,26.1c2.7,3.5,2,8.5-1.4,11.2c-3.5,2.7-8.5,2-11.2-1.4c-6.7-8.7-14.4-16.5-23-23.4
	C218.3,26.9,187.3,16,155.7,16c-67,0-124.4,47.3-136.6,112.5C18.5,132.4,15.2,135.1,11.4,135.1z"/>
<g>
	<path class="st2" d="M143,197.9l-63.9,59.6c-2.6,2.4-6.6,2.2-9.1-0.4l-1.3-1.4c-2.4-2.6-2.2-6.6,0.4-9.1L133,187
		c2.6-2.4,6.6-2.2,9.1,0.4l1.3,1.4C145.7,191.5,145.6,195.5,143,197.9z"/>
	<path class="st2" d="M215.8,191l-97.1,90.6c-2.6,2.4-6.6,2.2-9.1-0.4l-1.3-1.4c-2.4-2.6-2.2-6.6,0.4-9.1l97.1-90.6
		c2.6-2.4,6.6-2.2,9.1,0.4l1.3,1.4C218.5,184.5,218.3,188.5,215.8,191z"/>
	<path class="st2" d="M209.9,255.1l-97.1,90.6c-2.6,2.4-6.6,2.2-9.1-0.4l-1.3-1.4c-2.4-2.6-2.2-6.6,0.4-9.1l97.1-90.5
		c2.6-2.4,6.6-2.2,9.1,0.4l1.3,1.4C212.5,248.6,212.5,252.7,209.9,255.1z"/>
	<path class="st2" d="M278.8,246.4L181.7,337c-2.6,2.4-6.6,2.2-9.1-0.4l-1.3-1.4c-2.4-2.6-2.2-6.6,0.4-9.1l97.1-90.6
		c2.6-2.4,6.6-2.2,9.1,0.4l1.3,1.4C281.5,240,281.3,244,278.8,246.4z"/>
</g>
</svg>
