<?xml version="1.0" encoding="UTF-8" standalone="no"?>
<!DOCTYPE svg PUBLIC "-//W3C//DTD SVG 1.1//EN" "http://www.w3.org/Graphics/SVG/1.1/DTD/svg11.dtd">
<svg xmlns:dc="http://purl.org/dc/elements/1.1/" xmlns="http://www.w3.org/2000/svg" xmlns:xl="http://www.w3.org/1999/xlink" version="1.1" viewBox="0 0 400 400" width="400" height="400">
  <defs/>
  <g id="Canvas_1" stroke-opacity="1" stroke="none" stroke-dasharray="none" fill="none" fill-opacity="1">
    <title>Canvas 1</title>
    <g id="Canvas_1_Layer_1">
      <title>Layer 1</title>
      <g id="Graphic_2">
        <path d="M 331.922 0 L 224.044 0 L 208.044 16 L 331.922 16 C 360.6704 16.032514 383.9675 39.329593 384 68.078 L 384 331.922 C 383.9675 360.6704 360.6704 383.9675 331.922 384 L 227.339 384 L 211.339 400 L 331.922 400 C 369.50262 399.957 399.957 369.50262 400 331.922 L 400 68.078 C 399.957 30.497378 369.50262 .042983964 331.922 2842171e-20 Z" fill="white"/>
      </g>
      <g id="Graphic_3">
        <path d="M 191.937 384 L 68.078 384 C 39.329593 383.9675 16.032514 360.6704 16 331.922 L 16 68.078 C 16.032514 39.329593 39.329593 16.032514 68.078 16 L 172.643 16 L 188.643 0 L 68.078 0 C 30.497378 .042983964 .042983964 30.497378 14210855e-21 68.078 L 14210855e-21 331.922 C .042983964 369.50262 30.497378 399.957 68.078 400 L 175.937 400 Z" fill="white"/>
      </g>
      <g id="Graphic_4">
        <path d="M 320.763 352.644 L 147.549 352.644 C 130.193 352.6247 116.12784 338.56 116.108 321.204 L 116.108 143.673 C 116.12729 126.31661 130.19261 112.25129 147.549 112.232 L 320.763 112.232 C 338.119 112.25184 352.1837 126.317 352.203 143.673 L 352.203 321.2 C 352.18537 338.55717 338.12017 352.62416 320.763 352.644 Z M 147.549 128.232 C 139.02528 128.24192 132.11792 135.14928 132.108 143.673 L 132.108 321.2 C 132.11792 329.72355 139.02544 336.63063 147.549 336.64 L 320.763 336.64 C 329.28522 336.62898 336.19063 329.72222 336.2 321.2 L 336.2 143.673 C 336.19063 135.14944 329.28355 128.24192 320.76 128.232 Z M 100.616 271.242 L 78.284 271.242 C 69.760056 271.23208 62.85282 264.32395 62.844 255.8 L 62.844 78.27 C 62.85337 69.74661 69.76061 62.83937 78.284 62.83 L 251.5 62.83 C 260.0234 62.83937 266.93063 69.74661 266.94 78.27 L 266.94 96.324 L 282.94 96.324 L 282.94 78.27 C 282.92016 60.91439 268.8556 46.84984 251.5 46.83 L 78.284 46.83 C 60.92839 46.84984 46.86384 60.91439 46.844 78.27 L 46.844 255.8 C 46.86329 273.156 60.928 287.22116 78.284 287.241 L 100.616 287.241 Z" fill="white"/>
      </g>
    </g>
  </g>
</svg>
