<svg xmlns="http://www.w3.org/2000/svg" viewBox="0 0 400 400"><path d="M331.922,0H224.044l-16,16H331.922A52.137,52.137,0,0,1,384,68.078V331.922A52.137,52.137,0,0,1,331.922,384H227.339l-16,16H331.922A68.156,68.156,0,0,0,400,331.922V68.078A68.156,68.156,0,0,0,331.922,0Z" fill="#78be20"/><path d="M191.937,384H68.078A52.137,52.137,0,0,1,16,331.922V68.078A52.137,52.137,0,0,1,68.078,16H172.643l16-16H68.078A68.156,68.156,0,0,0,0,68.078V331.922A68.156,68.156,0,0,0,68.078,400H175.937Z" fill="#00c1d5"/><path d="M320.763,352.644H147.549a31.476,31.476,0,0,1-31.441-31.44V143.673a31.476,31.476,0,0,1,31.441-31.441H320.763a31.476,31.476,0,0,1,31.44,31.441V321.2A31.476,31.476,0,0,1,320.763,352.644ZM147.549,128.232a15.459,15.459,0,0,0-15.441,15.441V321.2a15.458,15.458,0,0,0,15.441,15.44H320.763A15.457,15.457,0,0,0,336.2,321.2V143.673a15.458,15.458,0,0,0-15.44-15.441Zm-46.933,143.01H78.284A15.458,15.458,0,0,1,62.844,255.8V78.27a15.457,15.457,0,0,1,15.44-15.44H251.5a15.457,15.457,0,0,1,15.44,15.44V96.324h16V78.27A31.476,31.476,0,0,0,251.5,46.83H78.284a31.476,31.476,0,0,0-31.44,31.44V255.8a31.476,31.476,0,0,0,31.44,31.441h22.332Z" fill="#0091da"/></svg>