<?xml version="1.0" encoding="UTF-8" standalone="no"?>
<!DOCTYPE svg PUBLIC "-//W3C//DTD SVG 1.1//EN" "http://www.w3.org/Graphics/SVG/1.1/DTD/svg11.dtd">
<svg xmlns="http://www.w3.org/2000/svg" xmlns:dc="http://purl.org/dc/elements/1.1/" version="1.1" xmlns:xl="http://www.w3.org/1999/xlink" viewBox="0 0 400 400" width="400" height="400">
  <defs/>
  <g id="Canvas_1" stroke-opacity="1" fill="none" stroke="none" stroke-dasharray="none" fill-opacity="1">
    <title>Canvas 1</title>
    <g id="Canvas_1_Layer_1">
      <title>Layer 1</title>
      <g id="Graphic_2">
        <path d="M 400 231.34 C 400 197.44 386.8 165.57 362.83 141.6 C 347.46 126.23 328.52 115.09 307.87 109.23 C 283.07 67.28 237.77 41.36 188.82 41.36 C 151.88 41.36 117.16 55.74 91.04 81.86 C 74.14 98.76 61.93 119.62 55.6 142.37 C 21.21 163.52 2842171e-20 201.27 2842171e-20 241.7 C 2842171e-20 272.83 12.12 302.1 34.14 324.12 C 56.15 346.14 85.42 358.26 116.56 358.26 L 149.35 358.26 C 146.85 353.39 145.28 347.99 144.84 342.26 L 116.57 342.26 C 89.71 342.26 64.46 331.8 45.47 312.81 C 26.48 293.82 16.02 268.56 16.02 241.7 C 16.02 205.85 35.36 172.44 66.5 154.5 L 69.44 152.81 L 70.27 149.52 C 75.61 128.31 86.71 108.83 102.37 93.17 C 125.46 70.08 156.17 57.36 188.83 57.36 C 233.13 57.36 274.05 81.36 295.62 119.99 L 297.3 123 L 300.64 123.85 C 319.79 128.72 337.39 138.77 351.54 152.92 C 372.49 173.87 384.03 201.72 384.03 231.35 C 384.03 260.98 372.49 288.83 351.54 309.78 C 338.58 322.74 322.98 332.09 305.95 337.34 L 305.95 339 C 305.95 344.57 304.86 349.89 302.9 354.76 C 325.41 349.37 346.07 337.87 362.85 321.09 C 386.82 297.12 400.02 265.25 400.02 231.35 Z" fill="#0098c7"/>
      </g>
      <g id="Graphic_3">
        <path d="M 354 231.34 C 354 187.83 319.48 152.23 276.38 150.49 C 263.95 113.02 228.79 87.36 188.8 87.36 C 139.82 87.36 99.62 125.73 96.7 173.99 C 66.96 182.68 46 210.19 46 241.7 C 46 274.98 69.17 302.93 100.22 310.33 C 96.83 304.75 94.7 298.32 94.2 291.45 C 75.24 282.89 62 263.82 62 241.7 C 62 215.64 80.54 193.13 106.08 188.16 L 112.61 186.89 L 112.55 180.24 C 112.55 180.06 112.55 179.88 112.54 179.71 L 112.54 179.64 C 112.54 137.58 146.75 103.36 188.81 103.36 C 223.6 103.36 253.97 126.85 262.66 160.49 L 264.27 166.72 L 270.93 166.48 C 271.64 166.45 272.36 166.43 273.08 166.43 C 308.88 166.43 338 195.55 338 231.35 C 338 255.17 325.1 276.02 305.92 287.31 L 305.92 305.27 C 334.21 292.65 354 264.27 354 231.34 Z" fill="#005c8a"/>
      </g>
      <g id="Graphic_4">
        <path d="M 263.54 242.14 L 233.31 242.14 L 233.31 211.91 C 233.31 200.67 224.17 191.53 212.93 191.53 L 136.46 191.53 C 125.22 191.53 116.08 200.67 116.08 211.91 L 116.08 288.38 C 116.08 299.62 125.22 308.76 136.46 308.76 L 166.69 308.76 L 166.69 338.99 C 166.69 350.23 175.83 359.37 187.07 359.37 L 263.54 359.37 C 274.78 359.37 283.92 350.23 283.92 338.99 L 283.92 262.52 C 283.92 251.28 274.78 242.14 263.54 242.14 Z M 136.46 292.76 C 134.04 292.76 132.08 290.79 132.08 288.38 L 132.08 211.91 C 132.08 209.49 134.05 207.53 136.46 207.53 L 212.93 207.53 C 215.35 207.53 217.31 209.5 217.31 211.91 L 217.31 242.14 L 187.08 242.14 C 175.84 242.14 166.7 251.28 166.7 262.52 L 166.7 292.75 L 136.47 292.75 Z M 267.92 338.99 C 267.92 341.41 265.95 343.37 263.54 343.37 L 187.07 343.37 C 184.65 343.37 182.69 341.4 182.69 338.99 L 182.69 262.52 C 182.69 260.1 184.66 258.14 187.07 258.14 L 263.54 258.14 C 265.96 258.14 267.92 260.11 267.92 262.52 Z" fill="#0098c7"/>
      </g>
    </g>
  </g>
</svg>
